<mxfile host="app.diagrams.net" modified="2023-06-24T09:08:12.267Z" agent="Mozilla/5.0 (Windows NT 10.0; Win64; x64) AppleWebKit/537.36 (KHTML, like Gecko) Chrome/114.0.0.0 Safari/537.36 Edg/114.0.1823.51" etag="6VLjNvDoj7VJI16y-cEf" version="21.5.0" type="onedrive">
  <diagram id="R2lEEEUBdFMjLlhIrx00" name="Page-1">
    <mxGraphModel grid="1" page="1" gridSize="10" guides="1" tooltips="1" connect="1" arrows="1" fold="1" pageScale="1" pageWidth="850" pageHeight="1100" math="0" shadow="0" extFonts="Permanent Marker^https://fonts.googleapis.com/css?family=Permanent+Marker">
      <root>
        <mxCell id="0" />
        <mxCell id="1" parent="0" />
        <mxCell id="XsxtDueLxJUEkeKN-mqQ-1" value="title" style="ellipse;whiteSpace=wrap;html=1;aspect=fixed;" vertex="1" parent="1">
          <mxGeometry x="-840" y="147" width="80" height="80" as="geometry" />
        </mxCell>
        <mxCell id="XsxtDueLxJUEkeKN-mqQ-2" value="imageList" style="ellipse;whiteSpace=wrap;html=1;aspect=fixed;" vertex="1" parent="1">
          <mxGeometry x="-760" y="157" width="80" height="80" as="geometry" />
        </mxCell>
        <mxCell id="XsxtDueLxJUEkeKN-mqQ-7" style="edgeStyle=orthogonalEdgeStyle;rounded=0;orthogonalLoop=1;jettySize=auto;html=1;entryX=0.5;entryY=1;entryDx=0;entryDy=0;" edge="1" parent="1" source="XsxtDueLxJUEkeKN-mqQ-3" target="XsxtDueLxJUEkeKN-mqQ-1">
          <mxGeometry relative="1" as="geometry" />
        </mxCell>
        <mxCell id="XsxtDueLxJUEkeKN-mqQ-8" style="edgeStyle=orthogonalEdgeStyle;rounded=0;orthogonalLoop=1;jettySize=auto;html=1;entryX=0.5;entryY=1.071;entryDx=0;entryDy=0;entryPerimeter=0;" edge="1" parent="1" source="XsxtDueLxJUEkeKN-mqQ-3" target="XsxtDueLxJUEkeKN-mqQ-2">
          <mxGeometry relative="1" as="geometry" />
        </mxCell>
        <mxCell id="XsxtDueLxJUEkeKN-mqQ-11" style="edgeStyle=orthogonalEdgeStyle;rounded=0;orthogonalLoop=1;jettySize=auto;html=1;entryX=0.5;entryY=1;entryDx=0;entryDy=0;" edge="1" parent="1" source="XsxtDueLxJUEkeKN-mqQ-3" target="XsxtDueLxJUEkeKN-mqQ-10">
          <mxGeometry relative="1" as="geometry" />
        </mxCell>
        <mxCell id="XsxtDueLxJUEkeKN-mqQ-22" style="edgeStyle=orthogonalEdgeStyle;rounded=0;orthogonalLoop=1;jettySize=auto;html=1;entryX=0.5;entryY=0;entryDx=0;entryDy=0;" edge="1" parent="1" source="XsxtDueLxJUEkeKN-mqQ-3" target="XsxtDueLxJUEkeKN-mqQ-19">
          <mxGeometry relative="1" as="geometry" />
        </mxCell>
        <mxCell id="XsxtDueLxJUEkeKN-mqQ-31" style="edgeStyle=orthogonalEdgeStyle;rounded=0;orthogonalLoop=1;jettySize=auto;html=1;entryX=0.5;entryY=0;entryDx=0;entryDy=0;" edge="1" parent="1" source="XsxtDueLxJUEkeKN-mqQ-3" target="XsxtDueLxJUEkeKN-mqQ-30">
          <mxGeometry relative="1" as="geometry" />
        </mxCell>
        <mxCell id="XsxtDueLxJUEkeKN-mqQ-32" style="edgeStyle=orthogonalEdgeStyle;rounded=0;orthogonalLoop=1;jettySize=auto;html=1;entryX=0.5;entryY=0;entryDx=0;entryDy=0;" edge="1" parent="1" source="XsxtDueLxJUEkeKN-mqQ-3" target="XsxtDueLxJUEkeKN-mqQ-20">
          <mxGeometry relative="1" as="geometry" />
        </mxCell>
        <mxCell id="XsxtDueLxJUEkeKN-mqQ-3" value="NewsEntry" style="whiteSpace=wrap;html=1;aspect=fixed;" vertex="1" parent="1">
          <mxGeometry x="-550" y="247" width="80" height="80" as="geometry" />
        </mxCell>
        <mxCell id="XsxtDueLxJUEkeKN-mqQ-10" value="[...]" style="ellipse;whiteSpace=wrap;html=1;aspect=fixed;" vertex="1" parent="1">
          <mxGeometry x="-680" y="147" width="80" height="80" as="geometry" />
        </mxCell>
        <mxCell id="XsxtDueLxJUEkeKN-mqQ-38" style="edgeStyle=orthogonalEdgeStyle;rounded=0;orthogonalLoop=1;jettySize=auto;html=1;entryX=0.5;entryY=1;entryDx=0;entryDy=0;" edge="1" parent="1" source="XsxtDueLxJUEkeKN-mqQ-12" target="XsxtDueLxJUEkeKN-mqQ-13">
          <mxGeometry relative="1" as="geometry" />
        </mxCell>
        <mxCell id="XsxtDueLxJUEkeKN-mqQ-12" value="Author" style="whiteSpace=wrap;html=1;aspect=fixed;" vertex="1" parent="1">
          <mxGeometry x="-260" y="247" width="80" height="80" as="geometry" />
        </mxCell>
        <mxCell id="XsxtDueLxJUEkeKN-mqQ-13" value="PersonID" style="ellipse;whiteSpace=wrap;html=1;aspect=fixed;" vertex="1" parent="1">
          <mxGeometry x="-165" y="140" width="80" height="80" as="geometry" />
        </mxCell>
        <mxCell id="XsxtDueLxJUEkeKN-mqQ-15" value="" style="endArrow=none;html=1;rounded=0;exitX=1;exitY=0.5;exitDx=0;exitDy=0;entryX=0;entryY=0.5;entryDx=0;entryDy=0;" edge="1" parent="1" source="XsxtDueLxJUEkeKN-mqQ-17" target="XsxtDueLxJUEkeKN-mqQ-12">
          <mxGeometry width="50" height="50" relative="1" as="geometry">
            <mxPoint x="-370" y="417" as="sourcePoint" />
            <mxPoint x="-320" y="367" as="targetPoint" />
          </mxGeometry>
        </mxCell>
        <mxCell id="XsxtDueLxJUEkeKN-mqQ-19" value="deletionTime" style="ellipse;whiteSpace=wrap;html=1;aspect=fixed;" vertex="1" parent="1">
          <mxGeometry x="-840" y="317" width="80" height="80" as="geometry" />
        </mxCell>
        <mxCell id="XsxtDueLxJUEkeKN-mqQ-20" value="deletedBy&lt;br&gt;PersonID&lt;br&gt;" style="ellipse;whiteSpace=wrap;html=1;aspect=fixed;" vertex="1" parent="1">
          <mxGeometry x="-750" y="317" width="80" height="80" as="geometry" />
        </mxCell>
        <mxCell id="XsxtDueLxJUEkeKN-mqQ-24" value="creates,&lt;br&gt;edits,&lt;br&gt;&lt;span style=&quot;&quot;&gt;hides,&lt;br&gt;deletes&lt;br&gt;&lt;/span&gt;" style="rhombus;whiteSpace=wrap;html=1;" vertex="1" parent="1">
          <mxGeometry x="-420" y="147" width="110" height="130" as="geometry" />
        </mxCell>
        <mxCell id="XsxtDueLxJUEkeKN-mqQ-28" value="" style="endArrow=none;html=1;rounded=0;exitX=1;exitY=0.5;exitDx=0;exitDy=0;entryX=0;entryY=0.5;entryDx=0;entryDy=0;" edge="1" parent="1" source="XsxtDueLxJUEkeKN-mqQ-16" target="XsxtDueLxJUEkeKN-mqQ-17">
          <mxGeometry width="50" height="50" relative="1" as="geometry">
            <mxPoint x="-470" y="287" as="sourcePoint" />
            <mxPoint x="-260" y="287" as="targetPoint" />
          </mxGeometry>
        </mxCell>
        <mxCell id="XsxtDueLxJUEkeKN-mqQ-17" value="n" style="text;html=1;align=center;verticalAlign=middle;resizable=0;points=[];autosize=1;strokeColor=none;fillColor=none;" vertex="1" parent="1">
          <mxGeometry x="-290" y="272" width="30" height="30" as="geometry" />
        </mxCell>
        <mxCell id="XsxtDueLxJUEkeKN-mqQ-29" value="" style="endArrow=none;html=1;rounded=0;exitX=1;exitY=0.5;exitDx=0;exitDy=0;entryX=0;entryY=0.5;entryDx=0;entryDy=0;" edge="1" parent="1" source="XsxtDueLxJUEkeKN-mqQ-3" target="XsxtDueLxJUEkeKN-mqQ-16">
          <mxGeometry width="50" height="50" relative="1" as="geometry">
            <mxPoint x="-470" y="287" as="sourcePoint" />
            <mxPoint x="-290" y="287" as="targetPoint" />
          </mxGeometry>
        </mxCell>
        <mxCell id="XsxtDueLxJUEkeKN-mqQ-16" value="n" style="text;html=1;align=center;verticalAlign=middle;resizable=0;points=[];autosize=1;strokeColor=none;fillColor=none;" vertex="1" parent="1">
          <mxGeometry x="-470" y="272" width="30" height="30" as="geometry" />
        </mxCell>
        <mxCell id="XsxtDueLxJUEkeKN-mqQ-30" value="tappID" style="ellipse;whiteSpace=wrap;html=1;aspect=fixed;" vertex="1" parent="1">
          <mxGeometry x="-640" y="317" width="80" height="80" as="geometry" />
        </mxCell>
        <mxCell id="XsxtDueLxJUEkeKN-mqQ-58" value="title" style="ellipse;whiteSpace=wrap;html=1;aspect=fixed;" vertex="1" parent="1">
          <mxGeometry x="-730" y="727" width="80" height="80" as="geometry" />
        </mxCell>
        <mxCell id="XsxtDueLxJUEkeKN-mqQ-59" value="imageList" style="ellipse;whiteSpace=wrap;html=1;aspect=fixed;" vertex="1" parent="1">
          <mxGeometry x="-650" y="737" width="80" height="80" as="geometry" />
        </mxCell>
        <mxCell id="XsxtDueLxJUEkeKN-mqQ-101" style="edgeStyle=orthogonalEdgeStyle;rounded=0;orthogonalLoop=1;jettySize=auto;html=1;" edge="1" parent="1" source="XsxtDueLxJUEkeKN-mqQ-66" target="XsxtDueLxJUEkeKN-mqQ-67">
          <mxGeometry relative="1" as="geometry" />
        </mxCell>
        <mxCell id="XsxtDueLxJUEkeKN-mqQ-102" style="edgeStyle=orthogonalEdgeStyle;rounded=0;orthogonalLoop=1;jettySize=auto;html=1;" edge="1" parent="1" source="XsxtDueLxJUEkeKN-mqQ-66" target="XsxtDueLxJUEkeKN-mqQ-59">
          <mxGeometry relative="1" as="geometry" />
        </mxCell>
        <mxCell id="XsxtDueLxJUEkeKN-mqQ-103" style="edgeStyle=orthogonalEdgeStyle;rounded=0;orthogonalLoop=1;jettySize=auto;html=1;entryX=0.5;entryY=1;entryDx=0;entryDy=0;" edge="1" parent="1" source="XsxtDueLxJUEkeKN-mqQ-66" target="XsxtDueLxJUEkeKN-mqQ-58">
          <mxGeometry relative="1" as="geometry" />
        </mxCell>
        <mxCell id="XsxtDueLxJUEkeKN-mqQ-104" style="edgeStyle=orthogonalEdgeStyle;rounded=0;orthogonalLoop=1;jettySize=auto;html=1;entryX=0.482;entryY=1.147;entryDx=0;entryDy=0;entryPerimeter=0;" edge="1" parent="1" source="XsxtDueLxJUEkeKN-mqQ-66" target="XsxtDueLxJUEkeKN-mqQ-73">
          <mxGeometry relative="1" as="geometry" />
        </mxCell>
        <mxCell id="XsxtDueLxJUEkeKN-mqQ-106" style="edgeStyle=orthogonalEdgeStyle;rounded=0;orthogonalLoop=1;jettySize=auto;html=1;entryX=0.5;entryY=1;entryDx=0;entryDy=0;" edge="1" parent="1" source="XsxtDueLxJUEkeKN-mqQ-66" target="XsxtDueLxJUEkeKN-mqQ-80">
          <mxGeometry relative="1" as="geometry" />
        </mxCell>
        <mxCell id="XsxtDueLxJUEkeKN-mqQ-66" value="NewsEntry" style="whiteSpace=wrap;html=1;aspect=fixed;" vertex="1" parent="1">
          <mxGeometry x="-482.50000000000006" y="877" width="80" height="80" as="geometry" />
        </mxCell>
        <mxCell id="XsxtDueLxJUEkeKN-mqQ-67" value="[...]" style="ellipse;whiteSpace=wrap;html=1;aspect=fixed;" vertex="1" parent="1">
          <mxGeometry x="-570" y="727" width="80" height="80" as="geometry" />
        </mxCell>
        <mxCell id="XsxtDueLxJUEkeKN-mqQ-107" style="edgeStyle=orthogonalEdgeStyle;rounded=0;orthogonalLoop=1;jettySize=auto;html=1;entryX=0.5;entryY=0;entryDx=0;entryDy=0;" edge="1" parent="1" source="XsxtDueLxJUEkeKN-mqQ-70" target="XsxtDueLxJUEkeKN-mqQ-71">
          <mxGeometry relative="1" as="geometry" />
        </mxCell>
        <mxCell id="XsxtDueLxJUEkeKN-mqQ-70" value="Author" style="whiteSpace=wrap;html=1;aspect=fixed;" vertex="1" parent="1">
          <mxGeometry x="-482.5" y="1507" width="80" height="80" as="geometry" />
        </mxCell>
        <mxCell id="XsxtDueLxJUEkeKN-mqQ-71" value="PersonID" style="ellipse;whiteSpace=wrap;html=1;aspect=fixed;" vertex="1" parent="1">
          <mxGeometry x="-521.8199999999999" y="1647" width="80" height="80" as="geometry" />
        </mxCell>
        <mxCell id="XsxtDueLxJUEkeKN-mqQ-72" value="" style="endArrow=none;html=1;rounded=0;exitX=1;exitY=0.5;exitDx=0;exitDy=0;entryX=0;entryY=0.5;entryDx=0;entryDy=0;" edge="1" parent="1" target="XsxtDueLxJUEkeKN-mqQ-70">
          <mxGeometry width="50" height="50" relative="1" as="geometry">
            <mxPoint x="-482.4999999999998" y="1546.9999999999998" as="sourcePoint" />
            <mxPoint x="-542.5" y="1627" as="targetPoint" />
          </mxGeometry>
        </mxCell>
        <mxCell id="XsxtDueLxJUEkeKN-mqQ-73" value="last&lt;br&gt;Modification" style="ellipse;whiteSpace=wrap;html=1;aspect=fixed;" vertex="1" parent="1">
          <mxGeometry x="-255" y="727" width="80" height="80" as="geometry" />
        </mxCell>
        <mxCell id="XsxtDueLxJUEkeKN-mqQ-80" value="tappID" style="ellipse;whiteSpace=wrap;html=1;aspect=fixed;" vertex="1" parent="1">
          <mxGeometry x="-370" y="727" width="80" height="80" as="geometry" />
        </mxCell>
        <mxCell id="XsxtDueLxJUEkeKN-mqQ-121" style="edgeStyle=orthogonalEdgeStyle;rounded=0;orthogonalLoop=1;jettySize=auto;html=1;entryX=0;entryY=0.5;entryDx=0;entryDy=0;" edge="1" parent="1" source="XsxtDueLxJUEkeKN-mqQ-82" target="XsxtDueLxJUEkeKN-mqQ-110">
          <mxGeometry relative="1" as="geometry" />
        </mxCell>
        <mxCell id="1mg437OExGH2slYYDfnQ-8" style="edgeStyle=orthogonalEdgeStyle;rounded=0;orthogonalLoop=1;jettySize=auto;html=1;entryX=0;entryY=0.5;entryDx=0;entryDy=0;" edge="1" parent="1" source="XsxtDueLxJUEkeKN-mqQ-82" target="1mg437OExGH2slYYDfnQ-4">
          <mxGeometry relative="1" as="geometry" />
        </mxCell>
        <mxCell id="XsxtDueLxJUEkeKN-mqQ-82" value="Edit" style="whiteSpace=wrap;html=1;aspect=fixed;" vertex="1" parent="1">
          <mxGeometry x="-625" y="1197" width="80" height="80" as="geometry" />
        </mxCell>
        <mxCell id="XsxtDueLxJUEkeKN-mqQ-119" style="edgeStyle=orthogonalEdgeStyle;rounded=0;orthogonalLoop=1;jettySize=auto;html=1;entryX=1;entryY=0.5;entryDx=0;entryDy=0;" edge="1" parent="1" source="XsxtDueLxJUEkeKN-mqQ-83" target="XsxtDueLxJUEkeKN-mqQ-109">
          <mxGeometry relative="1" as="geometry" />
        </mxCell>
        <mxCell id="1mg437OExGH2slYYDfnQ-3" style="edgeStyle=orthogonalEdgeStyle;rounded=0;orthogonalLoop=1;jettySize=auto;html=1;entryX=1;entryY=0.5;entryDx=0;entryDy=0;" edge="1" parent="1" source="XsxtDueLxJUEkeKN-mqQ-83" target="1mg437OExGH2slYYDfnQ-2">
          <mxGeometry relative="1" as="geometry" />
        </mxCell>
        <mxCell id="XsxtDueLxJUEkeKN-mqQ-83" value="Creation" style="whiteSpace=wrap;html=1;aspect=fixed;" vertex="1" parent="1">
          <mxGeometry x="-730" y="1197" width="80" height="80" as="geometry" />
        </mxCell>
        <mxCell id="XsxtDueLxJUEkeKN-mqQ-122" style="edgeStyle=orthogonalEdgeStyle;rounded=0;orthogonalLoop=1;jettySize=auto;html=1;entryX=1;entryY=0.5;entryDx=0;entryDy=0;" edge="1" parent="1" source="XsxtDueLxJUEkeKN-mqQ-84" target="XsxtDueLxJUEkeKN-mqQ-111">
          <mxGeometry relative="1" as="geometry" />
        </mxCell>
        <mxCell id="1mg437OExGH2slYYDfnQ-10" style="edgeStyle=orthogonalEdgeStyle;rounded=0;orthogonalLoop=1;jettySize=auto;html=1;entryX=1;entryY=0.5;entryDx=0;entryDy=0;" edge="1" parent="1" source="XsxtDueLxJUEkeKN-mqQ-84" target="1mg437OExGH2slYYDfnQ-6">
          <mxGeometry relative="1" as="geometry" />
        </mxCell>
        <mxCell id="XsxtDueLxJUEkeKN-mqQ-84" value="Hide" style="whiteSpace=wrap;html=1;aspect=fixed;" vertex="1" parent="1">
          <mxGeometry x="-365" y="1197" width="80" height="80" as="geometry" />
        </mxCell>
        <mxCell id="XsxtDueLxJUEkeKN-mqQ-123" style="edgeStyle=orthogonalEdgeStyle;rounded=0;orthogonalLoop=1;jettySize=auto;html=1;entryX=0;entryY=0.5;entryDx=0;entryDy=0;" edge="1" parent="1" source="XsxtDueLxJUEkeKN-mqQ-85" target="XsxtDueLxJUEkeKN-mqQ-112">
          <mxGeometry relative="1" as="geometry" />
        </mxCell>
        <mxCell id="1mg437OExGH2slYYDfnQ-12" style="edgeStyle=orthogonalEdgeStyle;rounded=0;orthogonalLoop=1;jettySize=auto;html=1;entryX=0;entryY=0.5;entryDx=0;entryDy=0;" edge="1" parent="1" source="XsxtDueLxJUEkeKN-mqQ-85" target="1mg437OExGH2slYYDfnQ-5">
          <mxGeometry relative="1" as="geometry" />
        </mxCell>
        <mxCell id="XsxtDueLxJUEkeKN-mqQ-85" value="Deletion" style="whiteSpace=wrap;html=1;aspect=fixed;" vertex="1" parent="1">
          <mxGeometry x="-255" y="1197" width="80" height="80" as="geometry" />
        </mxCell>
        <mxCell id="XsxtDueLxJUEkeKN-mqQ-86" value="makes" style="rhombus;whiteSpace=wrap;html=1;" vertex="1" parent="1">
          <mxGeometry x="-492.5" y="1367" width="80" height="80" as="geometry" />
        </mxCell>
        <mxCell id="XsxtDueLxJUEkeKN-mqQ-87" value="" style="endArrow=none;html=1;rounded=0;exitX=0.5;exitY=1;exitDx=0;exitDy=0;entryX=0.5;entryY=0;entryDx=0;entryDy=0;" edge="1" parent="1" source="XsxtDueLxJUEkeKN-mqQ-94" target="XsxtDueLxJUEkeKN-mqQ-70">
          <mxGeometry width="50" height="50" relative="1" as="geometry">
            <mxPoint x="-482.5" y="1486.43" as="sourcePoint" />
            <mxPoint x="-332.5" y="1486.43" as="targetPoint" />
          </mxGeometry>
        </mxCell>
        <mxCell id="XsxtDueLxJUEkeKN-mqQ-88" value="" style="endArrow=none;html=1;rounded=0;exitX=0.5;exitY=1;exitDx=0;exitDy=0;entryX=0.5;entryY=0;entryDx=0;entryDy=0;" edge="1" parent="1" source="XsxtDueLxJUEkeKN-mqQ-92" target="XsxtDueLxJUEkeKN-mqQ-70">
          <mxGeometry width="50" height="50" relative="1" as="geometry">
            <mxPoint x="-702.5" y="1287" as="sourcePoint" />
            <mxPoint x="-432.5" y="1517" as="targetPoint" />
          </mxGeometry>
        </mxCell>
        <mxCell id="XsxtDueLxJUEkeKN-mqQ-89" value="" style="endArrow=none;html=1;rounded=0;exitX=0.5;exitY=1;exitDx=0;exitDy=0;entryX=0.5;entryY=0;entryDx=0;entryDy=0;" edge="1" parent="1" source="XsxtDueLxJUEkeKN-mqQ-98" target="XsxtDueLxJUEkeKN-mqQ-70">
          <mxGeometry width="50" height="50" relative="1" as="geometry">
            <mxPoint x="-692.5" y="1297" as="sourcePoint" />
            <mxPoint x="-422.5" y="1527" as="targetPoint" />
          </mxGeometry>
        </mxCell>
        <mxCell id="XsxtDueLxJUEkeKN-mqQ-90" value="" style="endArrow=none;html=1;rounded=0;exitX=0.5;exitY=1;exitDx=0;exitDy=0;entryX=0.5;entryY=0;entryDx=0;entryDy=0;" edge="1" parent="1" source="XsxtDueLxJUEkeKN-mqQ-96" target="XsxtDueLxJUEkeKN-mqQ-70">
          <mxGeometry width="50" height="50" relative="1" as="geometry">
            <mxPoint x="-682.5" y="1307" as="sourcePoint" />
            <mxPoint x="-412.5" y="1537" as="targetPoint" />
          </mxGeometry>
        </mxCell>
        <mxCell id="XsxtDueLxJUEkeKN-mqQ-91" value="" style="endArrow=none;html=1;rounded=0;exitX=0.5;exitY=1;exitDx=0;exitDy=0;entryX=0.5;entryY=0;entryDx=0;entryDy=0;" edge="1" parent="1" source="XsxtDueLxJUEkeKN-mqQ-82" target="XsxtDueLxJUEkeKN-mqQ-92">
          <mxGeometry width="50" height="50" relative="1" as="geometry">
            <mxPoint x="-585" y="1277" as="sourcePoint" />
            <mxPoint x="-420" y="1507" as="targetPoint" />
          </mxGeometry>
        </mxCell>
        <mxCell id="XsxtDueLxJUEkeKN-mqQ-92" value="n" style="text;html=1;align=center;verticalAlign=middle;resizable=0;points=[];autosize=1;strokeColor=none;fillColor=none;" vertex="1" parent="1">
          <mxGeometry x="-600" y="1277" width="30" height="30" as="geometry" />
        </mxCell>
        <mxCell id="XsxtDueLxJUEkeKN-mqQ-93" value="" style="endArrow=none;html=1;rounded=0;exitX=0.5;exitY=1;exitDx=0;exitDy=0;entryX=0.5;entryY=0;entryDx=0;entryDy=0;" edge="1" parent="1" source="XsxtDueLxJUEkeKN-mqQ-83" target="XsxtDueLxJUEkeKN-mqQ-94">
          <mxGeometry width="50" height="50" relative="1" as="geometry">
            <mxPoint x="-690" y="1277" as="sourcePoint" />
            <mxPoint x="-420" y="1507" as="targetPoint" />
          </mxGeometry>
        </mxCell>
        <mxCell id="XsxtDueLxJUEkeKN-mqQ-94" value="n" style="text;html=1;align=center;verticalAlign=middle;resizable=0;points=[];autosize=1;strokeColor=none;fillColor=none;" vertex="1" parent="1">
          <mxGeometry x="-700" y="1277" width="30" height="30" as="geometry" />
        </mxCell>
        <mxCell id="XsxtDueLxJUEkeKN-mqQ-95" value="" style="endArrow=none;html=1;rounded=0;exitX=0.5;exitY=1;exitDx=0;exitDy=0;entryX=0.5;entryY=0;entryDx=0;entryDy=0;" edge="1" parent="1" source="XsxtDueLxJUEkeKN-mqQ-85" target="XsxtDueLxJUEkeKN-mqQ-96">
          <mxGeometry width="50" height="50" relative="1" as="geometry">
            <mxPoint x="-215" y="1277" as="sourcePoint" />
            <mxPoint x="-420" y="1507" as="targetPoint" />
          </mxGeometry>
        </mxCell>
        <mxCell id="XsxtDueLxJUEkeKN-mqQ-96" value="n" style="text;html=1;align=center;verticalAlign=middle;resizable=0;points=[];autosize=1;strokeColor=none;fillColor=none;" vertex="1" parent="1">
          <mxGeometry x="-240" y="1277" width="30" height="30" as="geometry" />
        </mxCell>
        <mxCell id="XsxtDueLxJUEkeKN-mqQ-97" value="" style="endArrow=none;html=1;rounded=0;exitX=0.5;exitY=1;exitDx=0;exitDy=0;entryX=0.5;entryY=0;entryDx=0;entryDy=0;" edge="1" parent="1" source="XsxtDueLxJUEkeKN-mqQ-84" target="XsxtDueLxJUEkeKN-mqQ-98">
          <mxGeometry width="50" height="50" relative="1" as="geometry">
            <mxPoint x="-325" y="1277" as="sourcePoint" />
            <mxPoint x="-420" y="1507" as="targetPoint" />
          </mxGeometry>
        </mxCell>
        <mxCell id="XsxtDueLxJUEkeKN-mqQ-98" value="n" style="text;html=1;align=center;verticalAlign=middle;resizable=0;points=[];autosize=1;strokeColor=none;fillColor=none;" vertex="1" parent="1">
          <mxGeometry x="-340" y="1277" width="30" height="30" as="geometry" />
        </mxCell>
        <mxCell id="XsxtDueLxJUEkeKN-mqQ-99" value="&lt;font style=&quot;font-size: 24px;&quot;&gt;Simple&lt;/font&gt;" style="text;html=1;align=center;verticalAlign=middle;resizable=0;points=[];autosize=1;strokeColor=none;fillColor=none;" vertex="1" parent="1">
          <mxGeometry x="-840" y="20" width="100" height="40" as="geometry" />
        </mxCell>
        <mxCell id="XsxtDueLxJUEkeKN-mqQ-100" value="&lt;font style=&quot;font-size: 24px;&quot;&gt;Extended&lt;/font&gt;" style="text;html=1;align=center;verticalAlign=middle;resizable=0;points=[];autosize=1;strokeColor=none;fillColor=none;" vertex="1" parent="1">
          <mxGeometry x="-840" y="600" width="120" height="40" as="geometry" />
        </mxCell>
        <mxCell id="XsxtDueLxJUEkeKN-mqQ-109" value="Date" style="ellipse;whiteSpace=wrap;html=1;" vertex="1" parent="1">
          <mxGeometry x="-830" y="1197" width="50" height="40" as="geometry" />
        </mxCell>
        <mxCell id="XsxtDueLxJUEkeKN-mqQ-110" value="Date" style="ellipse;whiteSpace=wrap;html=1;" vertex="1" parent="1">
          <mxGeometry x="-506.81999999999994" y="1197" width="50" height="40" as="geometry" />
        </mxCell>
        <mxCell id="XsxtDueLxJUEkeKN-mqQ-111" value="Date" style="ellipse;whiteSpace=wrap;html=1;" vertex="1" parent="1">
          <mxGeometry x="-452.49999999999994" y="1197" width="50" height="40" as="geometry" />
        </mxCell>
        <mxCell id="XsxtDueLxJUEkeKN-mqQ-112" value="Date" style="ellipse;whiteSpace=wrap;html=1;" vertex="1" parent="1">
          <mxGeometry x="-130" y="1197" width="55" height="40" as="geometry" />
        </mxCell>
        <mxCell id="XsxtDueLxJUEkeKN-mqQ-118" value="" style="endArrow=none;html=1;rounded=0;entryX=0.5;entryY=1;entryDx=0;entryDy=0;" edge="1" parent="1" source="1mg437OExGH2slYYDfnQ-16" target="XsxtDueLxJUEkeKN-mqQ-66">
          <mxGeometry width="50" height="50" relative="1" as="geometry">
            <mxPoint x="-680" y="1197" as="sourcePoint" />
            <mxPoint x="-760" y="1107" as="targetPoint" />
          </mxGeometry>
        </mxCell>
        <mxCell id="XsxtDueLxJUEkeKN-mqQ-125" value="" style="endArrow=none;html=1;rounded=0;entryX=0.5;entryY=1;entryDx=0;entryDy=0;exitX=0.5;exitY=0;exitDx=0;exitDy=0;" edge="1" parent="1" source="1mg437OExGH2slYYDfnQ-18" target="XsxtDueLxJUEkeKN-mqQ-66">
          <mxGeometry width="50" height="50" relative="1" as="geometry">
            <mxPoint x="-670" y="1207" as="sourcePoint" />
            <mxPoint x="-432" y="967" as="targetPoint" />
          </mxGeometry>
        </mxCell>
        <mxCell id="XsxtDueLxJUEkeKN-mqQ-126" value="" style="endArrow=none;html=1;rounded=0;entryX=0.5;entryY=1;entryDx=0;entryDy=0;exitX=0.5;exitY=0;exitDx=0;exitDy=0;" edge="1" parent="1" source="1mg437OExGH2slYYDfnQ-24" target="XsxtDueLxJUEkeKN-mqQ-66">
          <mxGeometry width="50" height="50" relative="1" as="geometry">
            <mxPoint x="-660" y="1217" as="sourcePoint" />
            <mxPoint x="-422" y="977" as="targetPoint" />
          </mxGeometry>
        </mxCell>
        <mxCell id="XsxtDueLxJUEkeKN-mqQ-127" value="" style="endArrow=none;html=1;rounded=0;exitX=0.5;exitY=0;exitDx=0;exitDy=0;entryX=0.5;entryY=1;entryDx=0;entryDy=0;" edge="1" parent="1" source="1mg437OExGH2slYYDfnQ-22" target="XsxtDueLxJUEkeKN-mqQ-66">
          <mxGeometry width="50" height="50" relative="1" as="geometry">
            <mxPoint x="-650" y="1227" as="sourcePoint" />
            <mxPoint x="-340" y="987" as="targetPoint" />
          </mxGeometry>
        </mxCell>
        <mxCell id="XsxtDueLxJUEkeKN-mqQ-128" value="for" style="rhombus;whiteSpace=wrap;html=1;" vertex="1" parent="1">
          <mxGeometry x="-490" y="1077" width="80" height="80" as="geometry" />
        </mxCell>
        <mxCell id="1mg437OExGH2slYYDfnQ-2" value="Author" style="ellipse;whiteSpace=wrap;html=1;" vertex="1" parent="1">
          <mxGeometry x="-820" y="1237" width="50" height="40" as="geometry" />
        </mxCell>
        <mxCell id="1mg437OExGH2slYYDfnQ-4" value="Author" style="ellipse;whiteSpace=wrap;html=1;" vertex="1" parent="1">
          <mxGeometry x="-506.82" y="1237" width="50" height="40" as="geometry" />
        </mxCell>
        <mxCell id="1mg437OExGH2slYYDfnQ-5" value="Author" style="ellipse;whiteSpace=wrap;html=1;" vertex="1" parent="1">
          <mxGeometry x="-125" y="1237" width="50" height="40" as="geometry" />
        </mxCell>
        <mxCell id="1mg437OExGH2slYYDfnQ-6" value="Author" style="ellipse;whiteSpace=wrap;html=1;" vertex="1" parent="1">
          <mxGeometry x="-452.5" y="1237" width="50" height="40" as="geometry" />
        </mxCell>
        <mxCell id="1mg437OExGH2slYYDfnQ-14" value="1" style="text;html=1;align=center;verticalAlign=middle;resizable=0;points=[];autosize=1;strokeColor=none;fillColor=none;" vertex="1" parent="1">
          <mxGeometry x="-425" y="1478" width="30" height="30" as="geometry" />
        </mxCell>
        <mxCell id="1mg437OExGH2slYYDfnQ-17" value="" style="endArrow=none;html=1;rounded=0;entryX=0.5;entryY=1;entryDx=0;entryDy=0;" edge="1" parent="1" target="1mg437OExGH2slYYDfnQ-16">
          <mxGeometry width="50" height="50" relative="1" as="geometry">
            <mxPoint x="-680" y="1197" as="sourcePoint" />
            <mxPoint x="-442" y="957" as="targetPoint" />
          </mxGeometry>
        </mxCell>
        <mxCell id="1mg437OExGH2slYYDfnQ-16" value="n" style="text;html=1;align=center;verticalAlign=middle;resizable=0;points=[];autosize=1;strokeColor=none;fillColor=none;" vertex="1" parent="1">
          <mxGeometry x="-700" y="1167" width="30" height="30" as="geometry" />
        </mxCell>
        <mxCell id="1mg437OExGH2slYYDfnQ-21" value="" style="endArrow=none;html=1;rounded=0;entryX=0.5;entryY=1;entryDx=0;entryDy=0;exitX=0.5;exitY=0;exitDx=0;exitDy=0;" edge="1" parent="1" source="XsxtDueLxJUEkeKN-mqQ-82" target="1mg437OExGH2slYYDfnQ-18">
          <mxGeometry width="50" height="50" relative="1" as="geometry">
            <mxPoint x="-585" y="1197" as="sourcePoint" />
            <mxPoint x="-442" y="957" as="targetPoint" />
          </mxGeometry>
        </mxCell>
        <mxCell id="1mg437OExGH2slYYDfnQ-18" value="n" style="text;html=1;align=center;verticalAlign=middle;resizable=0;points=[];autosize=1;strokeColor=none;fillColor=none;" vertex="1" parent="1">
          <mxGeometry x="-590" y="1167" width="30" height="30" as="geometry" />
        </mxCell>
        <mxCell id="1mg437OExGH2slYYDfnQ-23" value="" style="endArrow=none;html=1;rounded=0;exitX=0.5;exitY=0;exitDx=0;exitDy=0;entryX=0.5;entryY=1;entryDx=0;entryDy=0;" edge="1" parent="1" source="XsxtDueLxJUEkeKN-mqQ-85" target="1mg437OExGH2slYYDfnQ-22">
          <mxGeometry width="50" height="50" relative="1" as="geometry">
            <mxPoint x="-215" y="1197" as="sourcePoint" />
            <mxPoint x="-442" y="957" as="targetPoint" />
          </mxGeometry>
        </mxCell>
        <mxCell id="1mg437OExGH2slYYDfnQ-22" value="n" style="text;html=1;align=center;verticalAlign=middle;resizable=0;points=[];autosize=1;strokeColor=none;fillColor=none;" vertex="1" parent="1">
          <mxGeometry x="-235" y="1167" width="30" height="30" as="geometry" />
        </mxCell>
        <mxCell id="1mg437OExGH2slYYDfnQ-25" value="" style="endArrow=none;html=1;rounded=0;entryX=0.5;entryY=1;entryDx=0;entryDy=0;exitX=0.5;exitY=0;exitDx=0;exitDy=0;" edge="1" parent="1" source="XsxtDueLxJUEkeKN-mqQ-84" target="1mg437OExGH2slYYDfnQ-24">
          <mxGeometry width="50" height="50" relative="1" as="geometry">
            <mxPoint x="-325" y="1197" as="sourcePoint" />
            <mxPoint x="-442" y="957" as="targetPoint" />
          </mxGeometry>
        </mxCell>
        <mxCell id="1mg437OExGH2slYYDfnQ-24" value="n" style="text;html=1;align=center;verticalAlign=middle;resizable=0;points=[];autosize=1;strokeColor=none;fillColor=none;" vertex="1" parent="1">
          <mxGeometry x="-345" y="1167" width="30" height="30" as="geometry" />
        </mxCell>
        <mxCell id="1mg437OExGH2slYYDfnQ-26" value="1" style="text;html=1;align=center;verticalAlign=middle;resizable=0;points=[];autosize=1;strokeColor=none;fillColor=none;" vertex="1" parent="1">
          <mxGeometry x="-400" y="957" width="30" height="30" as="geometry" />
        </mxCell>
        <mxCell id="12-AV8WCSq-FlgW8TxCg-1" value="NewsEntry" style="swimlane;childLayout=stackLayout;horizontal=1;startSize=50;horizontalStack=0;rounded=1;fontSize=14;fontStyle=0;strokeWidth=2;resizeParent=0;resizeLast=1;shadow=0;dashed=0;align=center;arcSize=4;whiteSpace=wrap;html=1;" vertex="1" parent="1">
          <mxGeometry x="90" y="130" width="160" height="280" as="geometry" />
        </mxCell>
        <mxCell id="12-AV8WCSq-FlgW8TxCg-2" value="title&lt;br&gt;message&lt;br&gt;isHidden&lt;br&gt;tappId&lt;br&gt;deletionTime&lt;br&gt;deletedByPersonId" style="align=left;strokeColor=none;fillColor=none;spacingLeft=4;fontSize=12;verticalAlign=top;resizable=0;rotatable=0;part=1;html=1;" vertex="1" parent="12-AV8WCSq-FlgW8TxCg-1">
          <mxGeometry y="50" width="160" height="230" as="geometry" />
        </mxCell>
        <mxCell id="12-AV8WCSq-FlgW8TxCg-3" value="Author" style="swimlane;childLayout=stackLayout;horizontal=1;startSize=50;horizontalStack=0;rounded=1;fontSize=14;fontStyle=0;strokeWidth=2;resizeParent=0;resizeLast=1;shadow=0;dashed=0;align=center;arcSize=4;whiteSpace=wrap;html=1;" vertex="1" parent="1">
          <mxGeometry x="430" y="180" width="160" height="120" as="geometry" />
        </mxCell>
        <mxCell id="12-AV8WCSq-FlgW8TxCg-4" value="personId" style="align=left;strokeColor=none;fillColor=none;spacingLeft=4;fontSize=12;verticalAlign=top;resizable=0;rotatable=0;part=1;html=1;" vertex="1" parent="12-AV8WCSq-FlgW8TxCg-3">
          <mxGeometry y="50" width="160" height="70" as="geometry" />
        </mxCell>
        <mxCell id="12-AV8WCSq-FlgW8TxCg-5" value="" style="edgeStyle=entityRelationEdgeStyle;fontSize=12;html=1;endArrow=ERmany;startArrow=ERmany;rounded=0;exitX=1.019;exitY=0.038;exitDx=0;exitDy=0;exitPerimeter=0;entryX=-0.037;entryY=0.231;entryDx=0;entryDy=0;entryPerimeter=0;" edge="1" parent="1" source="12-AV8WCSq-FlgW8TxCg-1" target="12-AV8WCSq-FlgW8TxCg-3">
          <mxGeometry width="100" height="100" relative="1" as="geometry">
            <mxPoint x="267.5" y="260" as="sourcePoint" />
            <mxPoint x="367.5" y="160" as="targetPoint" />
          </mxGeometry>
        </mxCell>
        <mxCell id="12-AV8WCSq-FlgW8TxCg-6" value="NewsEntry" style="swimlane;childLayout=stackLayout;horizontal=1;startSize=50;horizontalStack=0;rounded=1;fontSize=14;fontStyle=0;strokeWidth=2;resizeParent=0;resizeLast=1;shadow=0;dashed=0;align=center;arcSize=4;whiteSpace=wrap;html=1;" vertex="1" parent="1">
          <mxGeometry x="80" y="707" width="160" height="280" as="geometry" />
        </mxCell>
        <mxCell id="12-AV8WCSq-FlgW8TxCg-7" value="title&lt;br&gt;message&lt;br&gt;imageList&lt;br&gt;tappId&lt;br&gt;hidden&lt;br&gt;lastModification" style="align=left;strokeColor=none;fillColor=none;spacingLeft=4;fontSize=12;verticalAlign=top;resizable=0;rotatable=0;part=1;html=1;" vertex="1" parent="12-AV8WCSq-FlgW8TxCg-6">
          <mxGeometry y="50" width="160" height="230" as="geometry" />
        </mxCell>
        <mxCell id="12-AV8WCSq-FlgW8TxCg-8" value="Author" style="swimlane;childLayout=stackLayout;horizontal=1;startSize=50;horizontalStack=0;rounded=1;fontSize=14;fontStyle=0;strokeWidth=2;resizeParent=0;resizeLast=1;shadow=0;dashed=0;align=center;arcSize=4;whiteSpace=wrap;html=1;" vertex="1" parent="1">
          <mxGeometry x="470" y="727" width="160" height="120" as="geometry" />
        </mxCell>
        <mxCell id="12-AV8WCSq-FlgW8TxCg-9" value="personId" style="align=left;strokeColor=none;fillColor=none;spacingLeft=4;fontSize=12;verticalAlign=top;resizable=0;rotatable=0;part=1;html=1;" vertex="1" parent="12-AV8WCSq-FlgW8TxCg-8">
          <mxGeometry y="50" width="160" height="70" as="geometry" />
        </mxCell>
        <mxCell id="12-AV8WCSq-FlgW8TxCg-11" value="Action" style="swimlane;childLayout=stackLayout;horizontal=1;startSize=50;horizontalStack=0;rounded=1;fontSize=14;fontStyle=0;strokeWidth=2;resizeParent=0;resizeLast=1;shadow=0;dashed=0;align=center;arcSize=4;whiteSpace=wrap;html=1;" vertex="1" parent="1">
          <mxGeometry x="320" y="908.5" width="330" height="127" as="geometry" />
        </mxCell>
        <mxCell id="12-AV8WCSq-FlgW8TxCg-12" value="type (0: Create 1: Edit 2:Hide 3: Deletion)&lt;br&gt;Date&lt;br&gt;Author&lt;br&gt;" style="align=left;strokeColor=none;fillColor=none;spacingLeft=4;fontSize=12;verticalAlign=top;resizable=0;rotatable=0;part=1;html=1;" vertex="1" parent="12-AV8WCSq-FlgW8TxCg-11">
          <mxGeometry y="50" width="330" height="77" as="geometry" />
        </mxCell>
        <mxCell id="12-AV8WCSq-FlgW8TxCg-13" value="" style="edgeStyle=entityRelationEdgeStyle;fontSize=12;html=1;endArrow=ERoneToMany;startArrow=ERzeroToMany;rounded=0;entryX=1;entryY=0.25;entryDx=0;entryDy=0;" edge="1" parent="1" target="12-AV8WCSq-FlgW8TxCg-8">
          <mxGeometry width="100" height="100" relative="1" as="geometry">
            <mxPoint x="650" y="1000" as="sourcePoint" />
            <mxPoint x="575" y="640" as="targetPoint" />
            <Array as="points">
              <mxPoint x="440" y="890" />
              <mxPoint x="440" y="880" />
              <mxPoint x="410" y="870" />
              <mxPoint x="400" y="787" />
              <mxPoint x="420" y="780" />
            </Array>
          </mxGeometry>
        </mxCell>
        <mxCell id="12-AV8WCSq-FlgW8TxCg-14" value="" style="edgeStyle=entityRelationEdgeStyle;fontSize=12;html=1;endArrow=ERzeroToMany;startArrow=ERmandOne;rounded=0;jumpSize=6;exitX=1.017;exitY=0.554;exitDx=0;exitDy=0;exitPerimeter=0;entryX=0;entryY=0.5;entryDx=0;entryDy=0;" edge="1" parent="1" source="12-AV8WCSq-FlgW8TxCg-7" target="12-AV8WCSq-FlgW8TxCg-12">
          <mxGeometry width="100" height="100" relative="1" as="geometry">
            <mxPoint x="320" y="615.8620689655172" as="sourcePoint" />
            <mxPoint x="300" y="800" as="targetPoint" />
            <Array as="points">
              <mxPoint x="440" y="890" />
              <mxPoint x="310" y="840" />
            </Array>
          </mxGeometry>
        </mxCell>
        <mxCell id="12-AV8WCSq-FlgW8TxCg-16" value="NewsEntry" style="swimlane;childLayout=stackLayout;horizontal=1;startSize=50;horizontalStack=0;rounded=1;fontSize=14;fontStyle=0;strokeWidth=2;resizeParent=0;resizeLast=1;shadow=0;dashed=0;align=center;arcSize=4;whiteSpace=wrap;html=1;" vertex="1" parent="1">
          <mxGeometry x="990" y="130" width="160" height="280" as="geometry" />
        </mxCell>
        <mxCell id="12-AV8WCSq-FlgW8TxCg-17" value="id&lt;br&gt;title&lt;br&gt;message&lt;br&gt;tappId&lt;br&gt;isHidden&lt;br&gt;lastModificationTime&lt;br&gt;publishTime&lt;br&gt;deletionTime&lt;br&gt;deletedByPersonId" style="align=left;strokeColor=none;fillColor=none;spacingLeft=4;fontSize=12;verticalAlign=top;resizable=0;rotatable=0;part=1;html=1;" vertex="1" parent="12-AV8WCSq-FlgW8TxCg-16">
          <mxGeometry y="50" width="160" height="230" as="geometry" />
        </mxCell>
        <mxCell id="12-AV8WCSq-FlgW8TxCg-18" value="NewsEntry" style="swimlane;childLayout=stackLayout;horizontal=1;startSize=50;horizontalStack=0;rounded=1;fontSize=14;fontStyle=0;strokeWidth=2;resizeParent=0;resizeLast=1;shadow=0;dashed=0;align=center;arcSize=4;whiteSpace=wrap;html=1;" vertex="1" parent="1">
          <mxGeometry x="990" y="707" width="160" height="280" as="geometry" />
        </mxCell>
        <mxCell id="12-AV8WCSq-FlgW8TxCg-19" value="title&lt;br&gt;message&lt;br&gt;tappId&lt;br&gt;hidden&lt;br&gt;lastModification" style="align=left;strokeColor=none;fillColor=none;spacingLeft=4;fontSize=12;verticalAlign=top;resizable=0;rotatable=0;part=1;html=1;" vertex="1" parent="12-AV8WCSq-FlgW8TxCg-18">
          <mxGeometry y="50" width="160" height="230" as="geometry" />
        </mxCell>
        <mxCell id="12-AV8WCSq-FlgW8TxCg-20" value="Image" style="swimlane;childLayout=stackLayout;horizontal=1;startSize=50;horizontalStack=0;rounded=1;fontSize=14;fontStyle=0;strokeWidth=2;resizeParent=0;resizeLast=1;shadow=0;dashed=0;align=center;arcSize=4;whiteSpace=wrap;html=1;" vertex="1" parent="1">
          <mxGeometry x="1330" y="152" width="160" height="120" as="geometry" />
        </mxCell>
        <mxCell id="12-AV8WCSq-FlgW8TxCg-21" value="id&lt;br&gt;url&lt;br&gt;newsEntryId" style="align=left;strokeColor=none;fillColor=none;spacingLeft=4;fontSize=12;verticalAlign=top;resizable=0;rotatable=0;part=1;html=1;" vertex="1" parent="12-AV8WCSq-FlgW8TxCg-20">
          <mxGeometry y="50" width="160" height="70" as="geometry" />
        </mxCell>
        <mxCell id="12-AV8WCSq-FlgW8TxCg-22" value="" style="edgeStyle=entityRelationEdgeStyle;fontSize=12;html=1;endArrow=ERzeroToMany;startArrow=ERmandOne;rounded=0;" edge="1" parent="1">
          <mxGeometry width="100" height="100" relative="1" as="geometry">
            <mxPoint x="1150" y="308" as="sourcePoint" />
            <mxPoint x="1330" y="227" as="targetPoint" />
          </mxGeometry>
        </mxCell>
        <mxCell id="12-AV8WCSq-FlgW8TxCg-24" value="" style="ellipse;whiteSpace=wrap;html=1;fillColor=none;strokeColor=#5EB5F0;" vertex="1" parent="1">
          <mxGeometry x="880" y="10" width="750" height="500" as="geometry" />
        </mxCell>
      </root>
    </mxGraphModel>
  </diagram>
</mxfile>
